<?xml version="1.0" encoding="utf-8"?>
<svg xmlns="http://www.w3.org/2000/svg" viewBox="0 0 26 26" width="24" height="24">
  <path d="M7 5C6.449219 5 6 5.449219 6 6L6 20C6 20.550781 6.449219 21 7 21L10 21C10.550781 21 11 20.550781 11 20L11 15.125L18.09375 20.75C18.496094 20.953125 18.992188 20.921875 19.375 20.6875C19.761719 20.457031 20 20.039063 20 19.59375L20 6.40625C20 5.964844 19.761719 5.546875 19.375 5.3125C19.167969 5.1875 18.925781 5.125 18.6875 5.125C18.488281 5.125 18.277344 5.15625 18.09375 5.25L11 10.875L11 6C11 5.449219 10.550781 5 10 5Z" fill="#FFFFFF" />
</svg>