<?xml version="1.0" encoding="utf-8"?>
<svg xmlns="http://www.w3.org/2000/svg" viewBox="0 0 50 50" width="24" height="24">
  <path d="M16.96875 4.972656C15.867188 4.988281 14.984375 5.894531 15 7L15 15L7 15C6.277344 14.988281 5.609375 15.367188 5.246094 15.992188C4.878906 16.613281 4.878906 17.386719 5.246094 18.007813C5.609375 18.632813 6.277344 19.011719 7 19L19 19L19 7C19.007813 6.460938 18.796875 5.941406 18.414063 5.558594C18.03125 5.175781 17.511719 4.964844 16.96875 4.972656 Z M 32.96875 4.972656C31.921875 4.988281 31.0625 5.8125 31.003906 6.859375C31 6.90625 31 6.953125 31 7L31 19L43 19C43.066406 19 43.132813 19 43.199219 18.992188C44.269531 18.894531 45.070313 17.972656 45.015625 16.902344C44.964844 15.828125 44.074219 14.988281 43 15L35 15L35 7C35.007813 6.460938 34.796875 5.941406 34.414063 5.558594C34.03125 5.175781 33.511719 4.964844 32.96875 4.972656 Z M 7 31C6.277344 30.988281 5.609375 31.367188 5.246094 31.992188C4.878906 32.613281 4.878906 33.386719 5.246094 34.007813C5.609375 34.632813 6.277344 35.011719 7 35L15 35L15 43C14.988281 43.722656 15.367188 44.390625 15.992188 44.753906C16.613281 45.121094 17.386719 45.121094 18.007813 44.753906C18.632813 44.390625 19.011719 43.722656 19 43L19 31 Z M 31 31L31 43C30.988281 43.722656 31.367188 44.390625 31.992188 44.753906C32.613281 45.121094 33.386719 45.121094 34.007813 44.753906C34.632813 44.390625 35.011719 43.722656 35 43L35 35L43 35C43.722656 35.011719 44.390625 34.632813 44.753906 34.007813C45.121094 33.386719 45.121094 32.613281 44.753906 31.992188C44.390625 31.367188 43.722656 30.988281 43 31Z" fill="#FFFFFF" />
</svg>