<?xml version="1.0" encoding="utf-8"?>
<svg xmlns="http://www.w3.org/2000/svg" viewBox="0 0 24 24" width="16" height="16">
  <path d="M3 9C1.34375 9 0 10.34375 0 12C0 13.65625 1.34375 15 3 15C4.65625 15 6 13.65625 6 12C6 10.34375 4.65625 9 3 9 Z M 12 9C10.34375 9 9 10.34375 9 12C9 13.65625 10.34375 15 12 15C13.65625 15 15 13.65625 15 12C15 10.34375 13.65625 9 12 9 Z M 21 9C19.34375 9 18 10.34375 18 12C18 13.65625 19.34375 15 21 15C22.65625 15 24 13.65625 24 12C24 10.34375 22.65625 9 21 9Z" fill="#848482" />
</svg>