<?xml version="1.0" encoding="utf-8"?>
<svg xmlns="http://www.w3.org/2000/svg" viewBox="0 0 128 128" width="20" height="20">
  <path d="M79.335938 15.667969C78.064453 15.622266 76.775 15.762109 75.5 16.099609C72.1 16.999609 69.299609 19.199219 67.599609 22.199219L64 28.699219C63.2 30.099219 63.699609 32.000781 65.099609 32.800781L82.400391 42.800781C82.900391 43.100781 83.400391 43.199219 83.900391 43.199219C84.200391 43.199219 84.399219 43.199609 84.699219 43.099609C85.499219 42.899609 86.1 42.399219 86.5 41.699219L90.199219 35.199219C91.899219 32.199219 92.4 28.700781 91.5 25.300781C90.6 21.900781 88.400391 19.100391 85.400391 17.400391C83.525391 16.337891 81.455078 15.744141 79.335938 15.667969 z M 60.097656 38.126953C59.128906 38.201172 58.199219 38.724609 57.699219 39.599609L27.5 92C24.1 97.8 22.200781 104.30039 21.800781 110.90039L21 123.80078C20.9 124.90078 21.5 125.99961 22.5 126.59961C23 126.89961 23.5 127 24 127C24.6 127 25.199219 126.8 25.699219 126.5L36.5 119.40039C42 115.70039 46.7 110.8 50 105L80.300781 52.599609C81.100781 51.199609 80.599219 49.3 79.199219 48.5C77.799219 47.7 75.899609 48.199609 75.099609 49.599609L44.800781 102C41.900781 106.9 37.899609 111.20039 33.099609 114.40039L27.300781 118.19922L27.699219 111.30078C27.999219 105.60078 29.699609 100 32.599609 95L62.900391 42.599609C63.700391 41.199609 63.200781 39.3 61.800781 38.5C61.275781 38.2 60.678906 38.082422 60.097656 38.126953 z M 49 121C47.3 121 46 122.3 46 124C46 125.7 47.3 127 49 127L89 127C90.7 127 92 125.7 92 124C92 122.3 90.7 121 89 121L49 121 z M 104 121 A 3 3 0 0 0 101 124 A 3 3 0 0 0 104 127 A 3 3 0 0 0 107 124 A 3 3 0 0 0 104 121 z" fill="#848482" />
</svg>