<?xml version="1.0" encoding="utf-8"?>
<svg xmlns="http://www.w3.org/2000/svg" viewBox="0 0 100 100" width="32" height="32">
  <path fill="#ee3e54" d="M13 27A2 2 0 1 0 13 31A2 2 0 1 0 13 27Z" />
  <path fill="#f1bc19" d="M77 12A1 1 0 1 0 77 14A1 1 0 1 0 77 12Z" />
  <path fill="#fce0a2" d="M50 13A37 37 0 1 0 50 87A37 37 0 1 0 50 13Z" />
  <path fill="#f1bc19" d="M83 11A4 4 0 1 0 83 19A4 4 0 1 0 83 11Z" />
  <path fill="#ee3e54" d="M87 22A2 2 0 1 0 87 26A2 2 0 1 0 87 22Z" />
  <path fill="#fbcd59" d="M81 74A2 2 0 1 0 81 78 2 2 0 1 0 81 74zM15 59A4 4 0 1 0 15 67 4 4 0 1 0 15 59z" />
  <path fill="#ee3e54" d="M25 85A2 2 0 1 0 25 89A2 2 0 1 0 25 85Z" />
  <path fill="#fff" d="M18.5 51A2.5 2.5 0 1 0 18.5 56A2.5 2.5 0 1 0 18.5 51Z" />
  <path fill="#f1bc19" d="M21 66A1 1 0 1 0 21 68A1 1 0 1 0 21 66Z" />
  <path fill="#fff" d="M80 33A1 1 0 1 0 80 35A1 1 0 1 0 80 33Z" />
  <path fill="#48bed8" d="M29.7 70.3L29.7 61.7 33.3 61.7 33.3 66.7 66.7 66.7 66.7 61.7 70.3 61.7 70.3 70.3z" />
  <path fill="#472b29" d="M69.6,62.4V66v3.6H66H34h-3.6V66v-3.6h2.2V66v1.4H34h32h1.4V66v-3.6H69.6 M71,61h-5v5H34v-5h-5v5v5h5h32h5v-5 V61L71,61z" />
  <path fill="#48bed8" d="M37.9 47.9L41.2 44.7 47.7 51.2 47.7 24.7 52.3 24.7 52.3 51.2 58.8 44.7 62.1 47.9 50 60z" />
  <path fill="#472b29" d="M51.6 25.4v24.1 3.4l2.4-2.4 4.9-4.9 2.3 2.3-7.8 7.8-1 1 0 0L50 59l0 0 0 0-2.3-2.3 0 0-1-1-7.8-7.8 2.3-2.3 4.8 4.8 2.4 2.4v-3.4V25.4H51.6M53 24h-6v25.5l-5.8-5.8-4.2 4.2 8.8 8.8 0 0L50 61l0 0 0 0 4.2-4.2 0 0 8.8-8.8-4.2-4.2L53 49.5V24L53 24zM54.5 64h-18c-.3 0-.5-.2-.5-.5s.2-.5.5-.5h18c.3 0 .5.2.5.5S54.8 64 54.5 64z" />
  <g>
    <path fill="#472b29" d="M57.5,64h-1c-0.3,0-0.5-0.2-0.5-0.5s0.2-0.5,0.5-0.5h1c0.3,0,0.5,0.2,0.5,0.5S57.8,64,57.5,64z" />
  </g>
  <g>
    <path fill="#472b29" d="M63.5,64h-4c-0.3,0-0.5-0.2-0.5-0.5s0.2-0.5,0.5-0.5h4c0.3,0,0.5,0.2,0.5,0.5S63.8,64,63.5,64z" />
  </g>
</svg>