<?xml version="1.0" encoding="utf-8"?>
<svg xmlns="http://www.w3.org/2000/svg" viewBox="0 0 24 24" width="96" height="96">
  <path d="M17,18H4c-1.105,0-2-0.895-2-2V6c0-1.105,0.895-2,2-2h13c1.105,0,2,0.895,2,2v10C19,17.105,18.105,18,17,18z" opacity=".35" fill="#39986F" />
  <circle cx="14.5" cy="7.5" r="1.5" fill="#39986F" />
  <path d="M4,15.125C4,15.604,4.364,16,4.812,16h11.375C16.636,16,17,15.611,17,15.125C17,13.932,15.829,12,14.969,12 c-0.896,0-1.383,1.001-2.969,1.001C10.015,13.001,8.875,9,7.25,9S4,12.817,4,15.125z" fill="#39986F" />
  <path d="M20,6h-1v10c0,1.105-0.895,2-2,2H5c0,1.105,0.895,2,2,2h13c1.105,0,2-0.895,2-2V8C22,6.895,21.105,6,20,6z" fill="#39986F" />
</svg>