<?xml version="1.0" encoding="utf-8"?>
<svg xmlns="http://www.w3.org/2000/svg" data-name="Слой 1" viewBox="0 0 24 24" width="96" height="96">
  <rect width="20" height="16" x="2" y="4" opacity=".35" rx="3" fill="#C9C9C9" />
  <circle cx="17" cy="8" r="2" fill="#C9C9C9" />
  <path d="M15.586,17H19a1,1,0,0,0,1-1c0-1.364-1.688-3-2.5-3s-1.548,1-3.5,1c-2.443,0-4-5-6-5a1.483,1.483,0,0,0-.366.048Z" fill="#C9C9C9" />
  <path d="M6.039,10.282A10.614,10.614,0,0,0,4,16a1,1,0,0,0,1,1h7.758Z" fill="#C9C9C9" />
  <path d="M21,22a1,1,0,0,1-.707-.293l-18-18A1,1,0,0,1,3.707,2.293l18,18A1,1,0,0,1,21,22Z" fill="#C9C9C9" />
</svg>