<?xml version="1.0" encoding="utf-8"?>
<svg xmlns="http://www.w3.org/2000/svg" viewBox="0 0 30 30" width="24" height="24">
  <path d="M24.980469 3.9902344 A 1.0001 1.0001 0 0 0 24.869141 4L18 4 A 1.0001 1.0001 0 1 0 18 6L22.585938 6L6 22.585938L6 18 A 1.0001 1.0001 0 0 0 4.984375 16.986328 A 1.0001 1.0001 0 0 0 4 18L4 24.847656 A 1.0001 1.0001 0 0 0 5.1523438 26L12 26 A 1.0001 1.0001 0 1 0 12 24L7.4140625 24L24 7.4140625L24 12 A 1.0001 1.0001 0 1 0 26 12L26 5.1269531 A 1.0001 1.0001 0 0 0 24.980469 3.9902344 z" fill="#FFFFFF" />
</svg>