<?xml version="1.0" encoding="utf-8"?>
<svg xmlns="http://www.w3.org/2000/svg" viewBox="0 0 48 48" width="28" height="28">
  <path d="M11.5 6C8.4802259 6 6 8.4802259 6 11.5L6 17.5 A 1.50015 1.50015 0 1 0 9 17.5L9 11.5C9 10.101774 10.101774 9 11.5 9L17.5 9 A 1.50015 1.50015 0 1 0 17.5 6L11.5 6 z M 30.5 6 A 1.50015 1.50015 0 1 0 30.5 9L36.5 9C37.898226 9 39 10.101774 39 11.5L39 17.5 A 1.50015 1.50015 0 1 0 42 17.5L42 11.5C42 8.4802259 39.519774 6 36.5 6L30.5 6 z M 7.4765625 28.978516 A 1.50015 1.50015 0 0 0 6 30.5L6 36.5C6 39.519774 8.4802259 42 11.5 42L17.5 42 A 1.50015 1.50015 0 1 0 17.5 39L11.5 39C10.101774 39 9 37.898226 9 36.5L9 30.5 A 1.50015 1.50015 0 0 0 7.4765625 28.978516 z M 40.476562 28.978516 A 1.50015 1.50015 0 0 0 39 30.5L39 36.5C39 37.898226 37.898226 39 36.5 39L30.5 39 A 1.50015 1.50015 0 1 0 30.5 42L36.5 42C39.519774 42 42 39.519774 42 36.5L42 30.5 A 1.50015 1.50015 0 0 0 40.476562 28.978516 z" fill="#FFFFFF" />
</svg>