<?xml version="1.0" encoding="utf-8"?>
<svg xmlns="http://www.w3.org/2000/svg" viewBox="0 0 48 48" width="28" height="28">
  <path d="M8.5 11C5.4802259 11 3 13.480226 3 16.5L3 31.5C3 34.519774 5.4802259 37 8.5 37L39.5 37C42.519774 37 45 34.519774 45 31.5L45 16.5C45 13.480226 42.519774 11 39.5 11L8.5 11 z M 8.5 14L39.5 14C40.898226 14 42 15.101774 42 16.5L42 31.5C42 32.898226 40.898226 34 39.5 34L8.5 34C7.1017741 34 6 32.898226 6 31.5L6 16.5C6 15.101774 7.1017741 14 8.5 14 z M 16.375 17.005859C16.257547 17.01575 16.139641 17.037922 16.025391 17.076172L13.025391 18.076172C12.239391 18.338172 11.814172 19.188609 12.076172 19.974609C12.338172 20.760609 13.190609 21.188828 13.974609 20.923828L15 20.580078L15 29.5C15 30.329 15.671 31 16.5 31C17.329 31 18 30.329 18 29.5L18 18.5C18 18.018 17.767953 17.565203 17.376953 17.283203C17.082953 17.071703 16.727359 16.976187 16.375 17.005859 z M 33.375 17.042969C33.257547 17.052859 33.139641 17.076984 33.025391 17.115234L30.025391 18.115234C29.239391 18.377234 28.814172 19.225719 29.076172 20.011719C29.338172 20.797719 30.190609 21.225938 30.974609 20.960938L32 20.619141L32 29.537109C32 30.366109 32.671 31.037109 33.5 31.037109C34.329 31.037109 35 30.366109 35 29.537109L35 18.537109C35 18.055109 34.767953 17.602313 34.376953 17.320312C34.082953 17.108812 33.727359 17.013297 33.375 17.042969 z M 24 19 A 1.5 1.5 0 0 0 24 22 A 1.5 1.5 0 0 0 24 19 z M 24 26 A 1.5 1.5 0 0 0 24 29 A 1.5 1.5 0 0 0 24 26 z" fill="#FFFFFF" />
</svg>